<svg width="257" height="68" viewBox="0 0 257 68" fill="none" xmlns="http://www.w3.org/2000/svg">
<path d="M20 48V28.6236L28.3846 19L36.7692 28.6236V48M30.8944 38.3118H20M45.1538 19V48M45.1538 23.8441L61.9231 43.1559M61.9231 48V19M95.4615 48V19H108.038L112.231 23.8441V33.4677L108.038 38.3118H103.846L112.231 43.1559V48M145.769 19V48M145.769 23.8441L154.154 33.5323L162.538 23.8441M162.538 19V48M187.692 48H170.923V19H187.692M176.37 33.5H182.139M221.231 48V28.6236L229.615 19L238 28.6236V48M221.231 38.3118H232.125M70.3077 19V48H82.8846L87.0769 43.1559V23.8441L82.8846 19H70.3077ZM124.808 19L120.615 23.8441V43.1559L124.808 48H133.192L137.385 43.1559V23.8441L133.192 19H124.808ZM196.077 19V48H208.654L212.846 43.1559V23.8441L208.654 19H196.077Z" stroke="white" stroke-opacity="0.85" stroke-width="3" stroke-linecap="round" stroke-linejoin="round"/>
</svg>
